<?xml version="1.0" encoding="iso-8859-1"?>
<!-- Generator: Adobe Illustrator 19.0.0, SVG Export Plug-In . SVG Version: 6.00 Build 0)  -->
<svg version="1.1" id="Capa_1" xmlns="http://www.w3.org/2000/svg" xmlns:xlink="http://www.w3.org/1999/xlink" x="0px" y="0px"
	 viewBox="0 0 60 60" style="enable-background:new 0 0 60 60;" xml:space="preserve">
<g>
	<path d="M60,5.979c0-0.553-0.447-1-1-1c-4.364,0-6.112,0.329-7,0.879c-0.888-0.55-2.636-0.879-7-0.879c-0.553,0-1,0.447-1,1
		s0.447,1,1,1c5.037,0,5.869,0.474,5.986,0.587c0.015,0.05,0.015,0.21,0.014,0.327c0,0.002,0,0.085,0,0.086v6.539l-13.085,3.452
		c-0.444,0.116-0.816,0.399-1.047,0.797c-0.231,0.398-0.293,0.861-0.174,1.306l0.946,3.532c-2.102-0.929-4.352-1.469-6.64-1.592
		v-6.034h6c0.553,0,1-0.447,1-1s-0.447-1-1-1H23c-0.553,0-1,0.447-1,1s0.447,1,1,1h6v6.034c-2.289,0.122-4.538,0.663-6.641,1.592
		l0.946-3.532c0.119-0.444,0.058-0.907-0.174-1.306c-0.23-0.397-0.603-0.681-1.046-0.797L9,14.518V7.979
		c0-0.014-0.007-0.025-0.008-0.039C8.993,7.927,9,7.916,9,7.902C9,7.9,9,7.896,9,7.894h0C8.999,7.776,8.999,7.616,8.995,7.599
		C9.131,7.453,9.963,6.979,15,6.979c0.553,0,1-0.447,1-1s-0.447-1-1-1c-4.364,0-6.112,0.329-7,0.879
		c-0.888-0.55-2.636-0.879-7-0.879c-0.553,0-1,0.447-1,1s0.447,1,1,1c5.037,0,5.869,0.474,5.986,0.587
		C7.001,7.616,7.001,7.776,7,7.894c0,0.002,0,0.085,0,0.086v6.011l-1.985-0.524C4.124,13.229,3.16,13.79,2.92,14.682l-1.7,6.346
		c-0.119,0.443-0.058,0.906,0.172,1.303c0.23,0.397,0.603,0.682,1.048,0.8L7,24.333v27.233l-6.707,6.707
		c-0.391,0.391-0.391,1.023,0,1.414C0.488,59.882,0.744,59.979,1,59.979s0.512-0.098,0.707-0.293L7,54.394v4.586
		c0,0.553,0.447,1,1,1s1-0.447,1-1v-4.586l5.293,5.293c0.195,0.195,0.451,0.293,0.707,0.293s0.512-0.098,0.707-0.293
		c0.391-0.391,0.391-1.023,0-1.414L9,51.565V24.86l8.154,2.151C13.223,30.605,11,35.593,11,40.979
		c0,6.601,3.388,12.422,8.512,15.828l-0.482,1.929c-0.135,0.535,0.191,1.078,0.728,1.212c0.081,0.021,0.163,0.03,0.243,0.03
		c0.448,0,0.855-0.303,0.969-0.758l0.341-1.365c2.607,1.348,5.557,2.123,8.689,2.123s6.082-0.775,8.689-2.123l0.341,1.365
		c0.113,0.455,0.521,0.758,0.969,0.758c0.08,0,0.162-0.01,0.243-0.03c0.536-0.134,0.862-0.677,0.728-1.212l-0.482-1.929
		C45.612,53.401,49,47.581,49,40.979c0-5.387-2.223-10.375-6.154-13.968L51,24.861v26.705l-6.707,6.707
		c-0.391,0.391-0.391,1.023,0,1.414c0.195,0.195,0.451,0.293,0.707,0.293s0.512-0.098,0.707-0.293L51,54.394v4.586
		c0,0.553,0.447,1,1,1s1-0.447,1-1v-4.586l5.293,5.293c0.195,0.195,0.451,0.293,0.707,0.293s0.512-0.098,0.707-0.293
		c0.391-0.391,0.391-1.023,0-1.414L53,51.565V24.333l4.562-1.203c0.443-0.118,0.815-0.402,1.046-0.8
		c0.229-0.396,0.291-0.859,0.172-1.303l-1.7-6.347c-0.239-0.891-1.203-1.452-2.095-1.214L53,13.991V7.979
		c0-0.014-0.007-0.025-0.008-0.039C52.993,7.927,53,7.916,53,7.902c0-0.003,0-0.006,0-0.009h0c-0.001-0.117-0.001-0.277-0.005-0.295
		C53.131,7.453,53.963,6.979,59,6.979C59.553,6.979,60,6.532,60,5.979z M44,40.979c0,7.72-6.28,14-14,14s-14-6.28-14-14
		s6.28-14,14-14S44,33.26,44,40.979z"/>
	<path d="M45,3.979c4.364,0,6.112-0.329,7-0.879c0.888,0.55,2.636,0.879,7,0.879c0.553,0,1-0.447,1-1s-0.447-1-1-1
		c-5.037,0-5.869-0.474-5.986-0.587c-0.015-0.05-0.015-0.21-0.014-0.327c0-0.002,0-0.085,0-0.086c0-0.552-0.446-0.958-0.998-0.959
		c-0.001,0-0.001,0-0.002,0c-0.551,0-0.998,0.485-1,1.036c0,0.003,0,0.006,0,0.009h0c0.001,0.117,0.001,0.277,0.005,0.295
		C50.869,1.506,50.037,1.979,45,1.979c-0.553,0-1,0.447-1,1S44.447,3.979,45,3.979z"/>
	<path d="M1,3.979c4.364,0,6.112-0.329,7-0.879c0.888,0.55,2.636,0.879,7,0.879c0.553,0,1-0.447,1-1s-0.447-1-1-1
		c-5.037,0-5.869-0.474-5.986-0.587C8.999,1.343,8.999,1.183,9,1.065C9,1.063,9,0.98,9,0.979c0-0.552-0.446-0.958-0.998-0.959
		C7.479,0.059,7.002,0.505,7,1.057c0,0.003,0,0.006,0,0.009h0C7.001,1.183,7.001,1.343,7.005,1.36C6.869,1.506,6.037,1.979,1,1.979
		c-0.553,0-1,0.447-1,1S0.447,3.979,1,3.979z"/>
	<path d="M34.5,39.979c-2.481,0-4.5,2.019-4.5,4.5s2.019,4.5,4.5,4.5s4.5-2.019,4.5-4.5S36.981,39.979,34.5,39.979z"/>
</g>
<g>
</g>
<g>
</g>
<g>
</g>
<g>
</g>
<g>
</g>
<g>
</g>
<g>
</g>
<g>
</g>
<g>
</g>
<g>
</g>
<g>
</g>
<g>
</g>
<g>
</g>
<g>
</g>
<g>
</g>
</svg>
