<?xml version="1.0" encoding="iso-8859-1"?>
<!-- Generator: Adobe Illustrator 18.0.0, SVG Export Plug-In . SVG Version: 6.00 Build 0)  -->
<!DOCTYPE svg PUBLIC "-//W3C//DTD SVG 1.1//EN" "http://www.w3.org/Graphics/SVG/1.1/DTD/svg11.dtd">
<svg version="1.1" id="Capa_1" xmlns="http://www.w3.org/2000/svg" xmlns:xlink="http://www.w3.org/1999/xlink" x="0px" y="0px"
	 viewBox="0 0 297 297" style="enable-background:new 0 0 297 297;" xml:space="preserve">
<g>
	<path d="M119.136,142.081c-9.659,0-18.753,3.774-25.605,10.626c-14.083,14.082-14.155,36.923-0.162,50.915
		c6.748,6.748,15.736,10.465,25.309,10.465c9.659,0,18.754-3.773,25.606-10.627c6.811-6.81,10.584-15.847,10.626-25.446
		c0.043-9.634-3.673-18.679-10.464-25.468C137.696,145.798,128.709,142.081,119.136,142.081z M130.223,189.399
		c-3.098,3.098-7.197,4.804-11.546,4.804c-4.262,0-8.256-1.647-11.248-4.642c-6.24-6.238-6.167-16.465,0.162-22.794
		c3.096-3.097,7.196-4.802,11.545-4.802c4.262,0,8.257,1.647,11.25,4.641c3.011,3.011,4.658,7.03,4.639,11.319
		C135.006,182.247,133.301,186.322,130.223,189.399z"/>
	<path d="M294.081,26.111L270.882,2.912C269.017,1.048,266.487,0,263.851,0s-5.166,1.048-7.029,2.912l-5.625,5.624l-4.57-4.57
		c-3.883-3.881-10.176-3.881-14.061,0c-3.883,3.883-3.883,10.179,0,14.061l4.57,4.568l-9.141,9.141l-4.568-4.57
		c-3.883-3.882-10.18-3.883-14.062,0.001c-3.883,3.883-3.883,10.178,0.001,14.06l4.569,4.569L169.29,90.44
		c-12.245-7.987-24.363-12.024-36.211-12.024c-14.175,0-27.178,5.814-38.648,17.285c-4.811,4.811-7.606,10.89-10.074,16.252
		c-2.349,5.106-4.566,9.931-7.956,12.608c-7.427,5.87-14.767,6.866-23.267,8.02c-10.187,1.382-21.731,2.947-32.266,13.48
		C3.571,163.36-3.164,184.043,1.394,205.873c3.81,18.257,15.242,37.015,33.975,55.749c23.143,23.142,47.005,35.376,69.008,35.378
		c0.002,0,0.004,0,0.006,0c17.031,0,32.691-7.024,46.546-20.878c10.533-10.534,12.099-22.079,13.481-32.266
		c1.153-8.5,2.148-15.84,8.02-23.268c2.678-3.388,7.502-5.606,12.606-7.955c5.363-2.467,11.443-5.264,16.255-10.075
		c21.253-21.253,22.792-47.705,5.212-74.81l33.094-33.093l4.568,4.569c1.941,1.94,4.486,2.911,7.031,2.911
		c2.545,0,5.088-0.971,7.029-2.911c3.883-3.883,3.883-10.179,0-14.061l-4.568-4.569l9.139-9.14l4.57,4.569
		c1.941,1.941,4.484,2.913,7.029,2.913c2.545,0,5.09-0.972,7.029-2.912c3.885-3.883,3.885-10.177,0.002-14.06l-4.57-4.57
		l17.225-17.224C297.962,36.29,297.962,29.994,294.081,26.111z M187.231,188.498c-2.295,2.295-6.281,4.129-10.503,6.071
		c-6.685,3.074-14.262,6.56-19.897,13.69c-9.244,11.693-10.84,23.465-12.123,32.924c-1.188,8.757-2.047,15.086-7.84,20.877
		c-10.13,10.131-20.754,15.056-32.484,15.056c0,0-0.003,0-0.004,0c-16.615-0.002-35.616-10.223-54.949-29.555
		c-15.728-15.729-25.607-31.548-28.572-45.752c-3.209-15.373,1.394-29.009,14.072-41.687c5.791-5.792,12.12-6.65,20.878-7.839
		c9.459-1.283,21.23-2.88,32.924-12.122c7.131-5.637,10.616-13.214,13.692-19.899c1.941-4.221,3.775-8.208,6.069-10.502
		c7.713-7.712,15.755-11.461,24.587-11.461c12.751,0,27.465,7.975,42.551,23.061C201.754,147.483,205.656,170.071,187.231,188.498z
		 M185.027,102.825l78.824-78.822l9.139,9.139l-78.835,78.835L185.027,102.825z"/>
</g>
<g>
</g>
<g>
</g>
<g>
</g>
<g>
</g>
<g>
</g>
<g>
</g>
<g>
</g>
<g>
</g>
<g>
</g>
<g>
</g>
<g>
</g>
<g>
</g>
<g>
</g>
<g>
</g>
<g>
</g>
</svg>
