<?xml version="1.0" encoding="iso-8859-1"?>
<!-- Generator: Adobe Illustrator 17.1.0, SVG Export Plug-In . SVG Version: 6.00 Build 0)  -->
<!DOCTYPE svg PUBLIC "-//W3C//DTD SVG 1.1//EN" "http://www.w3.org/Graphics/SVG/1.1/DTD/svg11.dtd">
<svg version="1.1" id="Capa_1" xmlns="http://www.w3.org/2000/svg" xmlns:xlink="http://www.w3.org/1999/xlink" x="0px" y="0px"
	 viewBox="0 0 294 294" style="enable-background:new 0 0 294 294;" xml:space="preserve">
<path d="M279.333,16h-48h-33h-99h-33h-51C7.049,16,0,22.716,0,31v232c0,8.284,7.049,15,15.333,15h264
	c8.284,0,14.667-6.716,14.667-15V31C294,22.716,287.618,16,279.333,16z M97,178h2.333c8.284,0,14.667-6.716,14.667-15V46h20v202H97
	V178z M164,46h19v117c0,8.284,7.049,15,15.333,15H200v70h-36V46z M30,46h21v117c0,8.284,7.049,15,15.333,15H67v70H30V46z M264,248
	h-34v-70h1.333c8.284,0,14.667-6.716,14.667-15V46h18V248z"/>
<g>
</g>
<g>
</g>
<g>
</g>
<g>
</g>
<g>
</g>
<g>
</g>
<g>
</g>
<g>
</g>
<g>
</g>
<g>
</g>
<g>
</g>
<g>
</g>
<g>
</g>
<g>
</g>
<g>
</g>
</svg>
